<svg width="28" height="17" viewBox="0 0 28 17" fill="none" xmlns="http://www.w3.org/2000/svg">
<path d="M14 5.375C14.9946 5.375 15.9484 5.70424 16.6517 6.29029C17.3549 6.87634 17.75 7.6712 17.75 8.5C17.75 9.3288 17.3549 10.1237 16.6517 10.7097C15.9484 11.2958 14.9946 11.625 14 11.625C13.0054 11.625 12.0516 11.2958 11.3483 10.7097C10.6451 10.1237 10.25 9.3288 10.25 8.5C10.25 7.6712 10.6451 6.87634 11.3483 6.29029C12.0516 5.70424 13.0054 5.375 14 5.375ZM14 0.6875C20.25 0.6875 25.5875 3.92708 27.75 8.5C25.5875 13.0729 20.25 16.3125 14 16.3125C7.75 16.3125 2.4125 13.0729 0.25 8.5C2.4125 3.92708 7.75 0.6875 14 0.6875ZM2.975 8.5C3.98532 10.2191 5.55413 11.6674 7.5031 12.6805C9.45206 13.6935 11.703 14.2305 14 14.2305C16.297 14.2305 18.5479 13.6935 20.4969 12.6805C22.4459 11.6674 24.0147 10.2191 25.025 8.5C24.0147 6.78093 22.4459 5.33255 20.4969 4.31953C18.5479 3.3065 16.297 2.76946 14 2.76946C11.703 2.76946 9.45206 3.3065 7.5031 4.31953C5.55413 5.33255 3.98532 6.78093 2.975 8.5Z" fill="black"/>
</svg>
