<svg width="30" height="23" viewBox="0 0 30 23" fill="none" xmlns="http://www.w3.org/2000/svg">
<path d="M25.6009 8.73633C26.3623 9.3236 27.0036 9.8936 27.4845 10.3427C27.8168 10.6601 28.0007 11.0724 28.0007 11.5C28.0007 11.9275 27.8168 12.3398 27.4845 12.6572C25.3805 14.6091 20.5914 18.4091 15.0007 18.4091H14.1992" stroke="#000001" stroke-width="2.31353" stroke-linecap="round" stroke-linejoin="round"/>
<path d="M8.72807 16.9063C6.40693 15.7857 4.30962 14.3511 2.51626 12.6572C2.18395 12.3398 2 11.9274 2 11.4999C2 11.0724 2.18395 10.66 2.51626 10.3426C4.62026 8.39082 9.40937 4.59082 15 4.59082C17.2037 4.63052 19.3605 5.14728 21.2719 6.09355" stroke="#000001" stroke-width="2.31353" stroke-linecap="round" stroke-linejoin="round"/>
<path d="M26.0224 2L3.98047 21" stroke="#000001" stroke-width="2.31353" stroke-linecap="round" stroke-linejoin="round"/>
<path d="M12.1744 13.9359C11.4218 13.291 10.9967 12.4152 10.9922 11.5004C10.9922 10.5842 11.4144 9.70556 12.166 9.05771C12.9176 8.40986 13.9369 8.0459 14.9998 8.0459C16.061 8.04976 17.0771 8.41625 17.8252 9.06499" stroke="#000001" stroke-width="2.31353" stroke-linecap="round" stroke-linejoin="round"/>
<path d="M18.4867 13.2275C18.13 13.7532 17.6185 14.1881 17.0039 14.4884" stroke="#000001" stroke-width="2.31353" stroke-linecap="round" stroke-linejoin="round"/>
</svg>
