<svg width="26" height="30" viewBox="0 0 26 30" fill="none" xmlns="http://www.w3.org/2000/svg">
<path d="M20.5833 0H4.75C2.05833 0 0 1.91058 0 4.40904V13.2271H13.6167L9.975 9.84686C9.34167 9.25899 9.34167 8.37718 9.975 7.78931C10.6083 7.20144 11.5583 7.20144 12.1917 7.78931L18.525 13.668C19.1583 14.2559 19.1583 15.1377 18.525 15.7256L12.1917 21.6043C11.5583 22.1922 10.6083 22.1922 9.975 21.6043C9.34167 21.0164 9.34167 20.1346 9.975 19.5468L13.6167 16.1665H0V24.9846C0 27.483 2.05833 29.3936 4.75 29.3936H20.5833C23.275 29.3936 25.3333 27.483 25.3333 24.9846V4.40904C25.3333 1.91058 23.275 0 20.5833 0Z" fill="white"/>
</svg>
