<svg width="29" height="27" viewBox="0 0 29 27" fill="none" xmlns="http://www.w3.org/2000/svg">
<path d="M9.36418 2.8125C9.36418 2.58872 9.2687 2.37411 9.09874 2.21588C8.92879 2.05764 8.69828 1.96875 8.45793 1.96875C8.21757 1.96875 7.98707 2.05764 7.81711 2.21588C7.64716 2.37411 7.55168 2.58872 7.55168 2.8125V4.59C5.81168 4.71937 4.67101 5.03662 3.83243 5.8185C2.99264 6.59925 2.65189 7.66237 2.51172 9.28125H26.4875C26.3473 7.66125 26.0065 6.59925 25.1668 5.8185C24.3282 5.03662 23.1863 4.71937 21.4475 4.58888V2.8125C21.4475 2.58872 21.352 2.37411 21.1821 2.21588C21.0121 2.05764 20.7816 1.96875 20.5413 1.96875C20.3009 1.96875 20.0704 2.05764 19.9004 2.21588C19.7305 2.37411 19.635 2.58872 19.635 2.8125V4.51463C18.8315 4.5 17.9301 4.5 16.9163 4.5H12.0829C11.0691 4.5 10.1677 4.5 9.36418 4.51463V2.8125Z" fill="white"/>
<path fill-rule="evenodd" clip-rule="evenodd" d="M2.41602 13.5C2.41602 12.5561 2.41602 11.7169 2.43172 10.9688H26.567C26.5827 11.7169 26.5827 12.5561 26.5827 13.5V15.75C26.5827 19.9924 26.5827 22.1141 25.1665 23.4315C23.7516 24.75 21.4726 24.75 16.916 24.75H12.0827C7.52606 24.75 5.24714 24.75 3.83218 23.4315C2.41602 22.1141 2.41602 19.9924 2.41602 15.75V13.5ZM20.541 15.75C20.8615 15.75 21.1688 15.6315 21.3954 15.4205C21.622 15.2095 21.7493 14.9234 21.7493 14.625C21.7493 14.3266 21.622 14.0405 21.3954 13.8295C21.1688 13.6185 20.8615 13.5 20.541 13.5C20.2205 13.5 19.9132 13.6185 19.6866 13.8295C19.46 14.0405 19.3327 14.3266 19.3327 14.625C19.3327 14.9234 19.46 15.2095 19.6866 15.4205C19.9132 15.6315 20.2205 15.75 20.541 15.75ZM20.541 20.25C20.8615 20.25 21.1688 20.1315 21.3954 19.9205C21.622 19.7095 21.7493 19.4234 21.7493 19.125C21.7493 18.8266 21.622 18.5405 21.3954 18.3295C21.1688 18.1185 20.8615 18 20.541 18C20.2205 18 19.9132 18.1185 19.6866 18.3295C19.46 18.5405 19.3327 18.8266 19.3327 19.125C19.3327 19.4234 19.46 19.7095 19.6866 19.9205C19.9132 20.1315 20.2205 20.25 20.541 20.25ZM15.7077 14.625C15.7077 14.9234 15.5804 15.2095 15.3538 15.4205C15.1272 15.6315 14.8198 15.75 14.4993 15.75C14.1789 15.75 13.8715 15.6315 13.6449 15.4205C13.4183 15.2095 13.291 14.9234 13.291 14.625C13.291 14.3266 13.4183 14.0405 13.6449 13.8295C13.8715 13.6185 14.1789 13.5 14.4993 13.5C14.8198 13.5 15.1272 13.6185 15.3538 13.8295C15.5804 14.0405 15.7077 14.3266 15.7077 14.625ZM15.7077 19.125C15.7077 19.4234 15.5804 19.7095 15.3538 19.9205C15.1272 20.1315 14.8198 20.25 14.4993 20.25C14.1789 20.25 13.8715 20.1315 13.6449 19.9205C13.4183 19.7095 13.291 19.4234 13.291 19.125C13.291 18.8266 13.4183 18.5405 13.6449 18.3295C13.8715 18.1185 14.1789 18 14.4993 18C14.8198 18 15.1272 18.1185 15.3538 18.3295C15.5804 18.5405 15.7077 18.8266 15.7077 19.125ZM8.45768 15.75C8.77815 15.75 9.0855 15.6315 9.3121 15.4205C9.53871 15.2095 9.66602 14.9234 9.66602 14.625C9.66602 14.3266 9.53871 14.0405 9.3121 13.8295C9.0855 13.6185 8.77815 13.5 8.45768 13.5C8.13721 13.5 7.82987 13.6185 7.60326 13.8295C7.37666 14.0405 7.24935 14.3266 7.24935 14.625C7.24935 14.9234 7.37666 15.2095 7.60326 15.4205C7.82987 15.6315 8.13721 15.75 8.45768 15.75ZM8.45768 20.25C8.77815 20.25 9.0855 20.1315 9.3121 19.9205C9.53871 19.7095 9.66602 19.4234 9.66602 19.125C9.66602 18.8266 9.53871 18.5405 9.3121 18.3295C9.0855 18.1185 8.77815 18 8.45768 18C8.13721 18 7.82987 18.1185 7.60326 18.3295C7.37666 18.5405 7.24935 18.8266 7.24935 19.125C7.24935 19.4234 7.37666 19.7095 7.60326 19.9205C7.82987 20.1315 8.13721 20.25 8.45768 20.25Z" fill="white"/>
</svg>
