<svg width="1174" height="1024" viewBox="0 0 1174 1024" fill="none" xmlns="http://www.w3.org/2000/svg">
<path fill-rule="evenodd" clip-rule="evenodd" d="M1117.06 -49.3694C1216.06 -66.5931 1307.05 -14.8088 1380.24 31.7243C1452.42 77.6196 1521.88 135.067 1515.82 204.176C1510.06 269.961 1428.54 319.862 1351.45 360.307C1290.01 392.54 1214.46 394.308 1139.13 401.806C1053.73 410.307 963.087 436.88 891.283 406.11C811.677 371.997 752.115 306.638 763.802 240.967C774.834 178.974 885.465 155.997 944.414 107.549C1008.05 55.2491 1022.18 -32.8633 1117.06 -49.3694Z" fill="#B4E2FF" fill-opacity="0.07"/>
<path fill-rule="evenodd" clip-rule="evenodd" d="M899.101 652.318C984.164 593.895 1091.99 605.305 1180.86 619.184C1268.51 632.873 1358.67 658.837 1383.31 727.942C1406.76 793.724 1352.38 876.223 1297.99 947.748C1254.65 1004.75 1184.75 1038.38 1117.56 1077.44C1041.39 1121.71 968.247 1185.61 887.584 1186.32C798.155 1187.12 713.78 1149.35 695.92 1081.18C679.061 1016.82 772.483 947.943 806.388 876.378C842.988 799.126 817.582 708.307 899.101 652.318Z" fill="#B4E2FF" fill-opacity="0.07"/>
<path fill-rule="evenodd" clip-rule="evenodd" d="M328.28 410.627C416.897 399.018 495.413 451.746 558.351 498.734C620.426 545.077 679.58 602.127 671.205 666.647C663.233 728.064 588.712 771.113 518.531 805.499C462.601 832.903 395.467 831.096 328.28 834.671C252.107 838.724 170.502 859.481 108.106 827.337C38.9302 791.7 -11.0974 727.686 2.12704 666.647C14.6107 609.028 113.802 592.559 168.228 549.837C226.98 503.719 243.354 421.751 328.28 410.627Z" fill="#B4E2FF" fill-opacity="0.07"/>
</svg>
