<svg width="32" height="31" viewBox="0 0 32 31" fill="none" xmlns="http://www.w3.org/2000/svg">
<path d="M26 3.875H6C5.46957 3.875 4.96086 4.07913 4.58579 4.44248C4.21071 4.80583 4 5.29864 4 5.8125V25.1875C4 25.7014 4.21071 26.1942 4.58579 26.5575C4.96086 26.9209 5.46957 27.125 6 27.125H26C26.5304 27.125 27.0391 26.9209 27.4142 26.5575C27.7893 26.1942 28 25.7014 28 25.1875V5.8125C28 5.29864 27.7893 4.80583 27.4142 4.44248C27.0391 4.07913 26.5304 3.875 26 3.875ZM23 16.4688H17V22.2812C17 22.5382 16.8946 22.7846 16.7071 22.9663C16.5196 23.1479 16.2652 23.25 16 23.25C15.7348 23.25 15.4804 23.1479 15.2929 22.9663C15.1054 22.7846 15 22.5382 15 22.2812V16.4688H9C8.73478 16.4688 8.48043 16.3667 8.29289 16.185C8.10536 16.0033 8 15.7569 8 15.5C8 15.2431 8.10536 14.9967 8.29289 14.815C8.48043 14.6333 8.73478 14.5312 9 14.5312H15V8.71875C15 8.46182 15.1054 8.21542 15.2929 8.03374C15.4804 7.85206 15.7348 7.75 16 7.75C16.2652 7.75 16.5196 7.85206 16.7071 8.03374C16.8946 8.21542 17 8.46182 17 8.71875V14.5312H23C23.2652 14.5312 23.5196 14.6333 23.7071 14.815C23.8946 14.9967 24 15.2431 24 15.5C24 15.7569 23.8946 16.0033 23.7071 16.185C23.5196 16.3667 23.2652 16.4688 23 16.4688Z" fill="#36B4FB"/>
</svg>
