<svg width="27" height="24" viewBox="0 0 27 24" fill="none" xmlns="http://www.w3.org/2000/svg">
<path d="M24.3107 23.625L15.2593 15.4875C14.5409 16.0042 13.7148 16.4132 12.7809 16.7146C11.8471 17.016 10.8533 17.1667 9.79971 17.1667C7.18965 17.1667 4.98091 16.3538 3.17349 14.728C1.36608 13.1022 0.461896 11.1165 0.460938 8.77083C0.45998 6.42517 1.36417 4.43944 3.17349 2.81367C4.98282 1.18789 7.19156 0.375 9.79971 0.375C12.4079 0.375 14.6171 1.18789 16.4274 2.81367C18.2377 4.43944 19.1414 6.42517 19.1385 8.77083C19.1385 9.71806 18.9709 10.6115 18.6356 11.451C18.3004 12.2906 17.8454 13.0333 17.2707 13.6792L26.3222 21.8167L24.3107 23.625ZM9.79971 14.5833C11.5956 14.5833 13.1224 14.0184 14.38 12.8887C15.6376 11.7589 16.266 10.3863 16.265 8.77083C16.2641 7.15539 15.6357 5.78321 14.38 4.65429C13.1243 3.52538 11.5975 2.96006 9.79971 2.95833C8.00188 2.95661 6.47559 3.52193 5.22084 4.65429C3.96609 5.78665 3.33728 7.15883 3.33441 8.77083C3.33153 10.3828 3.96035 11.7554 5.22084 12.8887C6.48134 14.0219 8.00763 14.5868 9.79971 14.5833Z" fill="#0F2C42"/>
</svg>
